Patient4_TMGait_0pt6_02_right_09_EMG.mot
version=1
nRows=33
nColumns=33
inDegrees=no
endheader
time	1LAddLong	2LGlutMax	3LGlutMed	4LIliopsoas	5LSemiMemb	6LBicFemLong	7LRecFem	8LVastMed	9LVastLat	10LGasMed	11LTibAnt	12lTibPost	13LPeroneusLong	14LSol	15LExtDigLong	16LFlexDigLong	17RAddLong	18RGlutMax	19RGlutMed	20RIliopsoas	21RSemiMemb	22RBicFemLong	23RRecFem	24RVastMed	25RVastLat	26RGasMed	27RTibAnt	28RTibPost	29RPeroneusLong	30RSol	31RExtDigLong	32RFlexDigLong
10.32	-0.007629	-0.14114	0.080719	-0.010834	0.01358	0.010986	0.15335	-0.001526	0.006256	-0.17212	-0.049591	0.003052	-0.22232	-0.14145	-0.067596	-0.016174	0.006866	-0.034637	-0.016022	-0.015106	0.074158	-0.030823	0.37903	-0.046387	-0.0737	-0.003357	-0.63889	-0.003204	0.19531	-0.02655	0	-0.00061
10.321	0.009766	-0.20416	0.028992	0.003967	0.018921	-0.033112	0.15106	0.007782	-0.005798	-0.11261	-0.057526	0.003662	0.11353	-0.002747	-0.054474	0.00061	0.004272	-0.13138	-0.06546	-0.15579	0.061035	-0.033112	0.42129	-0.097504	-0.063934	-0.009308	-0.26916	-0.00351	0.4361	-0.083618	0.006866	0.00412
10.322	0.00946	-0.1799	0.063477	0.020599	0.019073	0.019989	0.15717	0.016174	-0.006714	-0.039673	0.010834	0.005493	0.32944	-0.009003	0.10254	-0.000916	-0.000916	-0.12817	-0.19577	-0.14526	0.049438	-0.024719	0.32135	-0.10132	-0.05249	-0.00824	-0.012207	-0.005493	0.15945	-0.081177	-0.002136	-0.00061
10.323	-0.000153	-0.18616	0.041504	0.012817	0.039215	0.085602	0.168	0.013275	-0.049744	0.012817	0.092468	0.000153	0.34485	0.072937	0.14679	0.018463	0.018005	-0.1152	0.21668	-0.17929	0.045776	-0.019684	0.28076	-0.099335	-0.046539	-0.009613	-0.018768	-0.006409	-0.30716	0.016937	-0.001831	0.000763
10.324	-0.00824	-0.20142	-0.11566	0.026245	-0.003967	0.10437	0.18951	0.019379	-0.07782	0.11292	0.039063	0.000305	0.45212	0.22095	0.15823	-0.000153	0.014954	-0.14954	0.18784	-0.010071	0.0383	-0.000458	0.20157	-0.058441	-0.053864	-0.006561	-0.16586	-0.002136	-0.37979	0.008392	-0.002747	-0.008087
10.325	-0.007782	-0.18997	-0.16281	0.044556	-0.016479	0.053558	0.23453	0.001984	-0.032349	0.22919	-0.048676	0.005951	0.24536	0.077667	0.15243	-0.019226	0.040436	-0.14328	-0.094452	0.30823	0.041504	0.014954	0.070953	-0.080414	-0.018311	0.001526	-0.20004	-0.008087	0.43289	0.017853	0.002441	-0.00412
10.326	0.002747	-0.18478	-0.15747	0.029297	-0.044861	0.014801	0.26245	-0.024261	0.036926	0.25238	-0.056305	0.010681	-0.33341	-0.24323	0.14435	-0.019836	0.16617	-0.16464	-0.024872	0.38269	0.035095	0.004883	0.04776	-0.10223	-0.037079	0.003967	-0.17532	-0.005798	0.29175	-0.059814	-0.002289	-0.000916
10.327	0.00946	-0.15579	-0.10452	-0.004883	-0.031433	-0.003815	0.2739	-0.042267	0.082397	0.21576	-0.013123	0.007172	-0.4773	-0.32959	0.12787	-0.01236	0.21316	-0.12863	0.009766	0.35049	0.029144	0.009155	0.078125	-0.075836	-0.043488	0.00061	0.078278	-0.001678	-0.38635	-0.13138	-0.002136	-0.00946
10.328	0.002747	-0.11368	-0.053406	-0.021362	0.018158	0.005646	0.31006	-0.027466	0.079498	0.15747	-0.005035	0.012665	0.040741	-0.28503	0.17059	-0.022888	0.1535	-0.083466	0.033722	0.35614	0.029449	-0.006561	0.015411	-0.052338	-0.04303	0.001984	0.45761	-0.005188	-0.12131	-0.13733	-0.002747	-0.011902
10.329	-0.016937	-0.15625	0.032196	-0.020447	0.016022	-0.002747	0.22995	-0.016479	0.024414	0.19928	0.085144	0.012665	-0.46738	-0.13657	0.1445	-0.02533	0.1297	-0.053406	0.10941	0.18982	0.016174	-0.012207	-0.010223	-0.059052	-0.061493	-0.003204	0.23804	-0.007172	0.16495	-0.063782	-0.009766	-0.012207
10.33	-0.006714	-0.18158	0.026093	-0.018311	0.011139	0.00885	0.15991	-0.00412	-0.030365	0.17517	0.048065	-0.001526	-0.14343	-0.2829	0.00885	-0.007019	0.13886	-0.11765	0.033722	0.008087	0.010529	-0.049438	0.052948	-0.16113	-0.071411	-0.007935	0.37109	-0.007324	0.023956	0.037231	-0.00061	-0.011139
10.331	-0.003815	-0.20813	-0.11353	-0.02655	-0.002899	0.025177	0.14633	-0.010986	-0.033264	0.083313	-0.046234	0.002289	-0.064545	-0.2179	-0.062866	-0.018768	0.14053	-0.1738	-0.083466	-0.014496	-0.015106	-0.06958	0.14969	-0.17197	-0.067291	0.000763	0.39688	-0.003052	-0.21332	0.07019	-0.001373	-0.007019
10.332	-0.007172	-0.1091	-0.10788	-0.00473	-0.006714	0.000458	0.18372	0.002136	-0.029755	0.009155	-0.080872	0.010223	0.054626	0.15213	-0.16205	0.015411	0.080261	-0.16861	-0.13733	0.042725	-0.043182	-0.084686	0.092468	-0.19745	-0.089569	0.009918	-0.23407	-0.009003	-0.33234	-0.052032	-0.003967	-0.001221
10.333	-0.011139	-0.14603	0.08316	-0.025024	-0.017395	-0.029907	0.12024	0.009155	-0.054169	-0.074768	-0.054016	0.007935	-0.12772	0.37857	-0.054321	0.005035	0.002594	-0.20599	-0.036011	0.10025	-0.041962	-0.10468	0.063171	-0.16098	-0.078735	0.006104	-0.45685	-0.005951	0.11536	-0.14267	0.001068	-0.006866
10.334	-0.00946	-0.15961	0.16739	-0.00885	-0.03006	-0.067749	0.12161	-0.003204	0.015564	-0.092163	-0.025177	-0.003052	-0.39368	0.37293	-0.007782	0.00351	-0.040436	-0.16556	-0.063171	0.042267	-0.018768	-0.061035	0.088654	-0.15915	-0.072784	-0.00473	-0.10254	-0.005035	0.58838	-0.11749	0.000458	-0.000305
10.335	-0.010529	-0.17944	0.097046	-0.005798	-0.027008	-0.01358	0.21637	-0.015717	0.13901	-0.005951	0.058441	0.003052	-0.17471	0.15152	0.023956	0.00061	-0.054474	-0.14771	-0.002747	0.019989	-0.020447	-0.050812	0.11643	-0.19058	-0.075989	-0.010071	0.071564	-0.006866	0.55801	-0.036316	0	0.00061
10.336	-0.00473	-0.15823	-0.019226	-0.016174	-0.019836	0.000458	0.29511	-0.013885	0.14542	0.006256	0.095825	0.005798	0.48279	-0.019226	-0.066376	-0.005035	-0.033569	-0.15198	0.072937	0.048523	-0.035553	-0.020599	0.14694	-0.159	-0.064697	-0.006409	0.018158	-0.001373	0.61066	0.015564	-0.004425	-0.00061
10.337	-0.010071	-0.13473	-0.059052	-0.018311	-0.10346	-0.048523	0.25986	-0.021667	0.18219	0.01297	0.036316	0.003357	0.5864	-0.055237	-0.14572	-0.001526	-0.036926	-0.16373	0.1831	0.049286	-0.03067	0.000458	0.20111	-0.10864	-0.032959	0.003204	0.41473	-0.008087	0.10864	0.059509	-0.004272	0.006714
10.338	-0.015564	-0.13947	-0.059509	0.00412	-0.12756	-0.10544	0.2594	-0.013275	0.22034	0.012665	-0.020447	0.001526	0.8252	0.010376	-0.2243	-0.001678	-0.065613	-0.18066	0.28046	-0.045319	-0.022278	0.015411	0.18158	-0.091553	-0.017242	0.008087	0.20569	-0.001678	-0.23102	0.045319	-0.002441	0.014496
10.339	-0.002594	-0.1236	0.025177	-0.001373	-0.10529	-0.11169	0.24796	-0.003815	0.23132	-0.018005	-0.096741	0.004272	0.080261	0.12756	-0.036926	-0.018768	-0.086517	-0.15778	-0.087433	-0.051575	-0.000458	0.03479	0.12772	-0.050354	-0.007019	-0.00351	-0.6369	-0.008545	-0.40619	0.10651	0.000153	0.006256
10.34	0.054474	-0.085754	0.11047	0.001526	-0.021973	-0.15243	0.1532	0.000305	0.22903	-0.007935	0.003204	0.004272	-0.33203	0.084229	0.1947	-0.001984	-0.121	-0.11307	-0.16235	-0.05188	-0.002899	0.082703	0.14801	-0.070038	-0.001831	-0.007477	-0.88684	-0.007172	-0.103	0.16754	-0.000305	-0.000916
10.341	0.058136	-0.090637	0.072632	0.017548	0.084991	-0.20554	0.066833	0.001068	0.27191	-0.045013	0.13901	0.005493	-0.36972	0.22339	0.028229	-0.006256	-0.11261	-0.10666	-0.08728	-0.097046	-0.009155	0.06897	0.17532	-0.027618	-0.013885	-0.001831	-0.71503	-0.004578	0.075989	0.097961	0.001526	-0.007477
10.342	-0.022125	-0.12863	-0.090942	0.01236	0.13519	-0.14496	0.15579	-0.01236	0.23529	-0.077362	0.24506	0.003967	-0.42267	0.29739	0.076904	-0.001373	-0.10956	-0.11337	-0.069733	-0.22537	-0.012817	0.06012	0.29327	-0.018005	-0.018768	0.005493	-0.86319	-0.001831	0.18478	-0.001984	-0.003662	-0.00824
10.343	0.021362	-0.09201	-0.065613	-0.004272	0.11231	-0.031433	0.24262	-0.007935	-0.12024	-0.05127	0.20767	0.005188	-0.31967	0.19486	0.094299	-0.006561	-0.11353	-0.15747	-0.076752	-0.17761	-0.016632	0.00946	0.31052	-0.035248	-0.020294	0.003357	-0.40024	-0.008392	0.080109	0.015106	-0.002594	-0.005493
10.344	0.002747	-0.090637	-0.011749	0.007019	0.045776	0.13977	0.23926	0.014801	-0.27496	-0.023499	-0.029907	0.000763	-0.13016	0.078888	0.066376	0.004578	-0.094299	-0.18875	-0.12848	-0.067444	-0.017853	-0.010376	0.34607	0.002899	-0.017548	0.012054	0.46478	-0.007172	0.14847	0.000763	-0.003357	-0.002136
10.345	-0.001373	-0.1506	0.011902	0.005341	0.013733	0.2739	0.26627	0.011749	-0.39734	0.008392	-0.18066	0.00412	-0.10483	0.047455	0.028687	-0.009613	-0.061035	-0.15121	-0.055084	-0.051575	0.016632	-0.051422	0.29175	0.016174	-0.040131	0.005188	0.91599	-0.003967	0.22263	-0.053864	-0.001678	-0.006714
10.346	-0.021667	-0.09552	0.027161	0.024567	-0.036469	0.32486	0.20523	0.018616	-0.26657	-0.010376	-0.10346	0.003815	-0.15701	0.08255	0.38361	-0.005035	-0.009003	-0.17563	-0.21332	-0.045929	0.043335	-0.07019	0.18219	-0.04364	-0.04837	0.004425	0.6102	-0.001831	-0.12833	0.019989	-0.003357	-0.006561
10.347	-0.016937	-0.077362	0.082245	0.012054	-0.052948	0.32989	0.21164	0.019684	-0.17807	-0.020447	0.11032	0.005493	-0.16541	0.00885	0.043793	-0.014191	0.019989	-0.12817	-0.20248	-0.056915	0.04776	-0.10071	0.054016	-0.079803	-0.053101	0.006866	0.43259	-0.003357	-0.25131	0.094604	-0.000916	-0.001373
10.348	0.007935	-0.081787	-0.032806	-0.000916	0.022888	0.027161	0.22934	0.026398	-0.16083	0.012512	0.10468	0.006256	-0.064392	-0.10452	0.57129	-0.010986	0.027161	-0.17868	-0.06546	0.043793	0.018005	-0.089111	-0.080109	-0.13031	-0.054169	0.009766	0.25177	-0.002594	-0.19119	0.055695	-0.002136	-0.010986
10.349	0.014038	-0.066681	-0.065765	-0.010071	0.071869	-0.1268	0.20569	0.026245	-0.11765	0.023804	0.16617	0.000153	0.066833	-0.17136	-0.67642	-0.006714	0.030518	-0.18494	-0.038757	0.012054	-0.000458	-0.065918	-0.058289	-0.1088	-0.045471	0.001526	0.28778	-0.000916	-0.16022	0.058289	-0.001678	0.000763
10.35	0.019226	-0.049286	-0.020142	-0.013428	0.071106	-0.20096	0.15472	0.003357	0.1358	0.019379	0.11002	0.005493	0.000458	-0.13184	-0.65018	-0.014038	0.021667	-0.17044	-0.073395	-0.009613	-0.012817	-0.073853	-0.12955	-0.1088	-0.043945	-0.00412	0.28442	-0.001984	0.001526	0.093994	-0.00473	-0.000916
10.351	0.02243	-0.063324	-0.054321	0.012817	0.079346	-0.23361	0.159	0.007629	0.271	-0.02594	0.054169	0.005188	-0.037537	0.077209	0.005646	-0.002136	0.019684	-0.17014	-0.070496	-0.024414	-0.009155	-0.052948	-0.10803	-0.11658	-0.017853	-0.00061	0.36865	0.002136	0.001678	0.091248	-0.001678	-0.000153
10.352	0.019531	-0.099945	0.031433	0.0177	0.084076	-0.079803	0.26703	0.007172	0.16251	-0.03418	0.016022	0.00473	-0.033264	0.08728	0.43869	-0.016632	0.013885	-0.26215	0.013123	-0.13611	-0.003052	-0.059509	-0.066681	-0.061035	-0.042419	-0.003815	0.14999	-0.00412	-0.06424	0.10498	-0.005188	0.000153
